<svg width="23" height="23" viewBox="0 0 23 23" fill="none" xmlns="http://www.w3.org/2000/svg">
<mask id="path-1-inside-1" fill="white">
<path fill-rule="evenodd" clip-rule="evenodd" d="M21.2127 12.7287L22.627 11.3145L21.2127 9.90024L11.3132 0.00074482L9.89903 1.41496L19.7985 11.3145L9.89903 21.2139L11.3132 22.6282L21.2127 12.7287Z"/>
</mask>
<path fill-rule="evenodd" clip-rule="evenodd" d="M21.2127 12.7287L22.627 11.3145L21.2127 9.90024L11.3132 0.00074482L9.89903 1.41496L19.7985 11.3145L9.89903 21.2139L11.3132 22.6282L21.2127 12.7287Z" fill="white"/>
<path d="M22.627 11.3145L22.6977 11.3852L22.7684 11.3145L22.6977 11.2437L22.627 11.3145ZM11.3132 0.00074482L11.384 -0.0699659L11.3132 -0.140677L11.2425 -0.0699659L11.3132 0.00074482ZM9.89903 1.41496L9.82832 1.34425L9.75761 1.41496L9.82832 1.48567L9.89903 1.41496ZM19.7985 11.3145L19.8692 11.3852L19.9399 11.3145L19.8692 11.2437L19.7985 11.3145ZM9.89903 21.2139L9.82832 21.1432L9.75761 21.2139L9.82832 21.2847L9.89903 21.2139ZM11.3132 22.6282L11.2425 22.6989L11.3132 22.7696L11.384 22.6989L11.3132 22.6282ZM22.5562 11.2437L21.142 12.658L21.2835 12.7994L22.6977 11.3852L22.5562 11.2437ZM21.142 9.97095L22.5562 11.3852L22.6977 11.2437L21.2835 9.82953L21.142 9.97095ZM11.2425 0.0714555L21.142 9.97095L21.2835 9.82953L11.384 -0.0699659L11.2425 0.0714555ZM9.96974 1.48567L11.384 0.0714555L11.2425 -0.0699659L9.82832 1.34425L9.96974 1.48567ZM19.8692 11.2437L9.96974 1.34425L9.82832 1.48567L19.7278 11.3852L19.8692 11.2437ZM9.96974 21.2847L19.8692 11.3852L19.7278 11.2437L9.82832 21.1432L9.96974 21.2847ZM11.384 22.5575L9.96974 21.1432L9.82832 21.2847L11.2425 22.6989L11.384 22.5575ZM21.142 12.658L11.2425 22.5575L11.384 22.6989L21.2835 12.7994L21.142 12.658Z" fill="black" mask="url(#path-1-inside-1)"/>
</svg>
