<svg width="24" height="24" viewBox="0 0 24 24" fill="none" xmlns="http://www.w3.org/2000/svg">
<mask id="path-1-inside-1" fill="white">
<path fill-rule="evenodd" clip-rule="evenodd" d="M2.09976 10.5858L0.685547 12L2.09976 13.4142L11.9993 23.3137L13.4135 21.8995L3.51397 12L13.4135 2.1005L11.9993 0.686292L2.09976 10.5858Z"/>
</mask>
<path fill-rule="evenodd" clip-rule="evenodd" d="M2.09976 10.5858L0.685547 12L2.09976 13.4142L11.9993 23.3137L13.4135 21.8995L3.51397 12L13.4135 2.1005L11.9993 0.686292L2.09976 10.5858Z" fill="white"/>
<path d="M0.685547 12L0.614836 11.9293L0.544126 12L0.614836 12.0707L0.685547 12ZM11.9993 23.3137L11.9285 23.3844L11.9993 23.4551L12.07 23.3844L11.9993 23.3137ZM13.4135 21.8995L13.4842 21.9702L13.5549 21.8995L13.4842 21.8288L13.4135 21.8995ZM3.51397 12L3.44326 11.9293L3.37255 12L3.44326 12.0707L3.51397 12ZM13.4135 2.1005L13.4842 2.17122L13.5549 2.1005L13.4842 2.02979L13.4135 2.1005ZM11.9993 0.686292L12.07 0.615581L11.9993 0.54487L11.9285 0.615581L11.9993 0.686292ZM0.756258 12.0707L2.17047 10.6565L2.02905 10.5151L0.614836 11.9293L0.756258 12.0707ZM2.17047 13.3435L0.756258 11.9293L0.614836 12.0707L2.02905 13.4849L2.17047 13.3435ZM12.07 23.243L2.17047 13.3435L2.02905 13.4849L11.9285 23.3844L12.07 23.243ZM13.3428 21.8288L11.9285 23.243L12.07 23.3844L13.4842 21.9702L13.3428 21.8288ZM3.44326 12.0707L13.3428 21.9702L13.4842 21.8288L3.58468 11.9293L3.44326 12.0707ZM13.3428 2.02979L3.44326 11.9293L3.58468 12.0707L13.4842 2.17122L13.3428 2.02979ZM11.9285 0.757002L13.3428 2.17122L13.4842 2.02979L12.07 0.615581L11.9285 0.757002ZM2.17047 10.6565L12.07 0.757002L11.9285 0.615581L2.02905 10.5151L2.17047 10.6565Z" fill="black" mask="url(#path-1-inside-1)"/>
</svg>
