<svg width="20" height="19" viewBox="0 0 20 19" fill="none" xmlns="http://www.w3.org/2000/svg">
<path fill-rule="evenodd" clip-rule="evenodd" d="M1 15.9765V4H6.53653C8.31487 4 9.7565 5.44163 9.7565 7.21997C9.7565 8.35002 9.40902 9.05003 8.13492 9.76816C9.65956 10.4628 10.083 11.4257 10.083 12.7686C10.083 14.5854 8.46907 15.9765 6.65233 15.9765H1ZM3.34282 5.9825V8.8624H6.08484C6.08484 8.8624 7.41756 8.8624 7.41756 7.42245C7.41756 5.9825 6.08484 5.9825 6.08484 5.9825H3.34282ZM3.34282 13.9482V10.8385H6.28399C6.75886 10.8385 7.75457 11.0836 7.75457 12.5542C7.75457 13.6449 6.77418 13.938 6.28399 13.9482H3.34282Z" fill="black"/>
<path fill-rule="evenodd" clip-rule="evenodd" d="M15.0922 7.2999C13.4071 7.2999 10.9102 8.51007 10.9102 11.727C10.9102 13.6858 11.9825 16.2 15.1994 16.2C17.7729 16.2 18.9576 14.3107 19.2282 13.3661H16.8079C16.6853 13.795 16.2104 14.2699 15.1994 14.2699C13.7288 14.2699 13.208 13.0137 13.1314 12.3857H19.2282V11.727C19.2282 8.51007 16.7772 7.2999 15.0922 7.2999ZM15.0922 9.13813C13.7196 9.13813 13.2131 10.2717 13.1314 10.8385H16.8079C16.8079 10.2717 16.4647 9.13813 15.0922 9.13813Z" fill="black"/>
<path d="M12.1663 4.68042V6.16632H17.9414V4.68042H12.1663Z" fill="black"/>
</svg>
