<svg width="19" height="19" viewBox="0 0 19 19" fill="none" xmlns="http://www.w3.org/2000/svg">
<path d="M5.61856 3.69215C5.61856 4.6267 4.80852 5.3843 3.80928 5.3843C2.81004 5.3843 2 4.6267 2 3.69215C2 2.7576 2.81004 2 3.80928 2C4.80852 2 5.61856 2.7576 5.61856 3.69215Z" fill="black"/>
<path d="M2.24742 6.6281H5.34021V16H2.24742V6.6281Z" fill="black"/>
<path d="M10.3196 6.6281H7.2268V16H10.3196C10.3196 16 10.3196 13.0496 10.3196 11.2049C10.3196 10.0976 10.6977 8.98554 12.2062 8.98554C13.911 8.98554 13.9008 10.4345 13.8928 11.5571C13.8824 13.0244 13.9072 14.5219 13.9072 16H17V11.0537C16.9738 7.89538 16.1508 6.44008 13.4433 6.44008C11.8354 6.44008 10.8387 7.17006 10.3196 7.83049V6.6281Z" fill="black"/>
</svg>
