<svg width="32" height="32" viewBox="0 0 32 32" fill="none" xmlns="http://www.w3.org/2000/svg">
<path d="M4.92133 8.38931C6.792 6.36131 9.62266 5.33331 13.3333 5.33331H14.6667V9.09198L13.5947 9.30665C11.768 9.67198 10.4973 10.3906 9.81733 11.4453C9.46252 12.0135 9.26129 12.664 9.23333 13.3333H13.3333C13.687 13.3333 14.0261 13.4738 14.2761 13.7238C14.5262 13.9739 14.6667 14.313 14.6667 14.6666V24C14.6667 25.4706 13.4707 26.6666 12 26.6666H4C3.64637 26.6666 3.30724 26.5262 3.05719 26.2761C2.80714 26.0261 2.66666 25.6869 2.66666 25.3333V18.6666L2.67066 14.7746C2.65866 14.6266 2.40533 11.12 4.92133 8.38931ZM26.6667 26.6666H18.6667C18.313 26.6666 17.9739 26.5262 17.7239 26.2761C17.4738 26.0261 17.3333 25.6869 17.3333 25.3333V18.6666L17.3373 14.7746C17.3253 14.6266 17.072 11.12 19.588 8.38931C21.4587 6.36131 24.2893 5.33331 28 5.33331H29.3333V9.09198L28.2613 9.30665C26.4347 9.67198 25.164 10.3906 24.484 11.4453C24.1292 12.0135 23.928 12.664 23.9 13.3333H28C28.3536 13.3333 28.6928 13.4738 28.9428 13.7238C29.1929 13.9739 29.3333 14.313 29.3333 14.6666V24C29.3333 25.4706 28.1373 26.6666 26.6667 26.6666Z" fill="#BDC3DB"/>
</svg>
